<?xml version="1.0" encoding="UTF-8"?>
<svg id="_線" data-name="線" xmlns="http://www.w3.org/2000/svg" viewBox="0 0 841.89 595.28">
  <defs>
    <style>
      .cls-1 {
        fill: #fff;
      }

      .cls-2 {
        fill: #b89dff;
      }

      .cls-3 {
        fill: #0a004d;
      }
    </style>
  </defs>
  <rect class="cls-3" width="841.89" height="595.28"/>
  <g>
    <g>
      <path class="cls-1" d="M63.78,555.59v-59.93h41v11.29h-28.49v12.16h25.88v11.29h-25.88v13.9h28.49v11.29h-41Z"/>
      <path class="cls-1" d="M116.24,555.59v-59.93h13.55l23.8,39.35v-39.35h12.51v59.93h-13.55l-23.8-39.35v39.35h-12.51Z"/>
      <path class="cls-1" d="M175.31,506.95v-11.29h48.99v11.29h-18.24v48.64h-12.51v-48.64h-18.24Z"/>
      <path class="cls-1" d="M233.5,555.59v-59.93h41v11.29h-28.49v12.16h25.88v11.29h-25.88v13.9h28.49v11.29h-41Z"/>
      <path class="cls-1" d="M285.96,555.59v-59.93h29.18c9.73,0,14.59,4.86,14.59,14.59v9.9c0,7.24-2.69,11.76-8.08,13.55l9.82,19.28-1.48,2.61h-10.77l-10.6-20.85h-10.16v20.85h-12.51ZM298.47,523.45h16.16c1.74,0,2.61-.87,2.61-2.61v-11.29c0-1.74-.87-2.61-2.61-2.61h-16.16v16.5Z"/>
      <path class="cls-1" d="M337.21,506.95v-11.29h48.99v11.29h-18.24v48.64h-12.51v-48.64h-18.24Z"/>
      <path class="cls-1" d="M385.51,553.25l17.81-57.59h19.11l17.81,57.59-1.56,2.35h-10.42l-3.65-12.16h-23.45l-3.65,12.16h-10.42l-1.56-2.35ZM404.53,532.14h16.68l-7.64-25.19h-1.39l-7.64,25.19Z"/>
      <path class="cls-1" d="M448.91,555.59v-59.93h12.51v59.93h-12.51Z"/>
      <path class="cls-1" d="M475.67,555.59v-59.93h13.55l23.8,39.35v-39.35h12.51v59.93h-13.55l-23.8-39.35v39.35h-12.51Z"/>
      <path class="cls-1" d="M539.77,555.59v-59.93h14.94l16.85,35.96,16.85-35.96h14.94v59.93h-12.51v-37.87l-14.07,30.05h-10.42l-14.07-30.05v37.87h-12.51Z"/>
      <path class="cls-1" d="M617.59,555.59v-59.93h41v11.29h-28.49v12.16h25.88v11.29h-25.88v13.9h28.49v11.29h-41Z"/>
      <path class="cls-1" d="M670.06,555.59v-59.93h13.55l23.8,39.35v-39.35h12.51v59.93h-13.55l-23.8-39.35v39.35h-12.51Z"/>
      <path class="cls-1" d="M729.12,506.95v-11.29h48.99v11.29h-18.24v48.64h-12.51v-48.64h-18.24Z"/>
    </g>
    <g>
      <path class="cls-1" d="M63.78,313.91h31.81v135.82h72.93l-8.32,29.86H63.78v-165.68Z"/>
      <path class="cls-1" d="M175.37,361.38h30.59v66.57c0,15.66,8.81,24.96,22.76,24.96s22.51-9.3,22.51-24.96v-66.57h30.59v66.57c0,33.53-21.54,54.57-53.11,54.57s-53.35-21.05-53.35-54.57v-66.57Z"/>
      <path class="cls-1" d="M347.16,358.45c15.91,0,27.9,6.61,36.46,16.64,8.32-10.03,20.07-16.64,35-16.64,25.45,0,47.23,17.86,47.23,47.97v73.17h-30.59v-70.97c0-11.5-7.1-20.31-18.6-20.31s-18.6,8.81-18.6,20.07v71.22h-30.59v-71.22c0-11.26-7.1-20.07-18.35-20.07s-18.6,8.81-18.6,20.07v71.22h-30.59v-73.17c0-30.35,22.03-47.97,47.23-47.97Z"/>
      <path class="cls-1" d="M485.67,361.38h30.59v118.2h-30.59v-118.2Z"/>
      <path class="cls-1" d="M588.94,358.45c31.57,0,53.11,21.05,53.11,54.57v66.57h-30.59v-66.57c0-15.66-9.05-24.96-22.51-24.96s-22.76,9.3-22.76,24.96v66.57h-30.59v-66.57c0-33.53,21.29-54.57,53.35-54.57Z"/>
      <path class="cls-1" d="M655.99,418.65c0-35.73,26.68-60.2,61.43-60.2s60.69,24.23,60.69,61.43v59.71h-30.59v-58.49c0-21.29-13.46-33.04-30.35-33.04s-30.1,12.97-30.1,30.59,12.97,31.81,35,31.81h13.22l-8.57,29.12h-7.1c-37.69,0-63.63-26.19-63.63-60.94Z"/>
    </g>
  </g>
  <g>
    <path class="cls-2" d="M466.8,319.41c-2.51-4.5-4.76-8.65-3.24-12.7.88-2.34,3.02-4.63,10.76-7.47,11.31-4.15,21.31-4.58,26.64-4.58s15.33.44,26.64,4.58c7.74,2.84,9.88,5.13,10.76,7.47,1.52,4.04-.73,8.2-3.24,12.7-3.89,6.95-20.11,25.9-34.17,25.9s-30.28-18.95-34.17-25.9Z"/>
    <path class="cls-2" d="M328.19,322.99c-48.63,0-88.05-39.42-88.05-88.05s36.54-85.08,82.66-87.87c-1.91-.11-3.83-.18-5.77-.18-54.79,0-99.21,44.42-99.21,99.21s44.42,99.21,99.21,99.21,99.21-44.42,99.21-99.21c0-1.94-.07-3.86-.18-5.77-2.79,46.12-41.05,82.66-87.87,82.66Z"/>
    <path class="cls-2" d="M696.07,322.99c-48.63,0-88.05-39.42-88.05-88.05s36.54-85.08,82.66-87.87c-1.91-.11-3.83-.18-5.77-.18-54.79,0-99.21,44.42-99.21,99.21s44.42,99.21,99.21,99.21,99.21-44.42,99.21-99.21c0-1.94-.07-3.86-.18-5.77-2.79,46.12-41.05,82.66-87.87,82.66Z"/>
  </g>
</svg>